<svg width="27" height="21" viewBox="0 0 27 21" fill="none" xmlns="http://www.w3.org/2000/svg">
<path d="M20.4399 7.2855C20.3567 7.48265 20.1684 7.61112 19.9583 7.61334C19.9561 7.61334 19.9561 7.61334 19.9561 7.61334H13.6952L8.26182 13.1112H6.78635L13.1129 6.70957C13.2114 6.61211 13.3449 6.55673 13.4785 6.55673H18.6973L13.2618 1.05661H1.78422L7.36866 6.70957C7.57224 6.91558 7.57224 7.25227 7.37084 7.45828L1.78422 13.1112H6.78416C6.57401 13.1112 6.38574 13.2397 6.30256 13.4391C6.22156 13.6362 6.26753 13.8622 6.41639 14.0128L6.56744 14.1656H0.5211C0.310945 14.1656 0.120492 14.0372 0.0394944 13.8378C-0.0415029 13.6384 0.00446858 13.4125 0.155518 13.2619L6.26315 7.08171L0.155518 0.90155C0.00446858 0.753138 -0.0415029 0.527196 0.0394944 0.327836C0.122681 0.128476 0.310945 0 0.5211 0H13.4763C13.612 0 13.7456 0.0553778 13.8441 0.152843L20.175 6.55673L20.326 6.70957C20.4749 6.86463 20.5209 7.08836 20.4399 7.2855Z" fill="#00AD8C"/>
<path d="M26.7053 20.3944C26.6221 20.5938 26.4317 20.7223 26.2215 20.7223H13.262C13.1262 20.7223 12.9927 20.6669 12.8964 20.5694L6.56984 14.1678L6.41879 14.0149C6.26993 13.8643 6.22396 13.6384 6.30495 13.4412C6.38814 13.2418 6.5764 13.1134 6.78656 13.1134H13.0474L18.4808 7.61325H19.9563C19.9585 7.61325 19.9585 7.61325 19.9585 7.61325L13.6319 14.0149C13.5268 14.1168 13.3977 14.1678 13.262 14.1678H8.0453L13.4809 19.6679H24.9606L19.374 14.0149C19.2755 13.9152 19.2229 13.7823 19.2229 13.6406C19.2229 13.4988 19.2777 13.3659 19.374 13.2662L24.9606 7.61325H19.9585C20.1686 7.61103 20.3569 7.48256 20.4401 7.28541C20.5189 7.08827 20.4751 6.86454 20.3262 6.70948L20.1752 6.55664H26.2193C26.4295 6.55664 26.62 6.68512 26.7031 6.88226C26.7841 7.08162 26.7382 7.30756 26.5893 7.46041L20.4817 13.6406L26.5893 19.8207C26.7382 19.9714 26.7841 20.1973 26.7053 20.3944Z" fill="#021B51"/>
</svg>
